<?xml version="1.0" standalone="no"?>
<!DOCTYPE svg PUBLIC "-//W3C//DTD SVG 20010904//EN"
 "http://www.w3.org/TR/2001/REC-SVG-20010904/DTD/svg10.dtd">
<svg version="1.0" xmlns="http://www.w3.org/2000/svg"
 width="1156.000000pt" height="1156.000000pt" viewBox="0 0 1156.000000 1156.000000"
 preserveAspectRatio="xMidYMid meet">
<metadata>
Created by potrace 1.14, written by Peter Selinger 2001-2017
</metadata>
<g transform="translate(0.000000,1156.000000) scale(0.100000,-0.100000)"
fill="#000000" stroke="none">
<path d="M3872 10249 c-8 -9 -41 -68 -74 -130 -33 -63 -83 -157 -110 -209 -28
-52 -75 -142 -105 -200 -31 -58 -59 -109 -64 -114 -5 -6 -9 -18 -9 -28 0 -10
-4 -18 -8 -18 -5 0 -14 -12 -21 -27 -7 -16 -37 -74 -67 -130 -30 -57 -54 -106
-54 -109 1 -4 -2 -10 -7 -13 -4 -3 -21 -31 -36 -61 -53 -102 -165 -315 -192
-365 -15 -27 -52 -97 -82 -155 -31 -58 -74 -141 -98 -185 -23 -44 -66 -125
-95 -180 -29 -55 -57 -106 -63 -112 -5 -7 -6 -13 -1 -13 5 0 4 -4 -2 -8 -6 -4
-22 -29 -35 -57 -14 -27 -47 -90 -73 -140 -97 -181 -132 -250 -132 -261 1 -6
8 -18 16 -27 8 -9 20 -22 25 -29 6 -7 45 -52 88 -100 42 -48 77 -89 77 -91 0
-3 15 -20 33 -38 17 -19 57 -63 87 -98 30 -35 60 -69 65 -75 11 -12 119 -137
170 -195 17 -19 40 -45 52 -58 12 -13 20 -23 18 -23 -2 0 6 -10 18 -23 20 -21
96 -107 147 -167 12 -14 43 -50 70 -80 54 -62 65 -74 135 -155 28 -32 59 -68
70 -80 11 -13 31 -36 45 -52 86 -99 159 -183 186 -213 60 -66 134 -155 134
-160 0 -3 -224 -5 -497 -5 l-497 0 -37 -65 c-20 -36 -35 -68 -32 -72 2 -5 0
-8 -4 -8 -10 0 -58 -90 -55 -102 1 -5 -2 -8 -7 -8 -5 0 -12 -9 -16 -20 -3 -10
-23 -51 -44 -89 -22 -38 -36 -72 -33 -75 3 -3 0 -6 -6 -6 -7 0 -12 -4 -12 -8
0 -5 -21 -46 -46 -93 -25 -46 -46 -88 -47 -94 -1 -5 -8 -16 -14 -23 -7 -7 -13
-20 -13 -28 0 -8 -5 -14 -11 -14 -5 0 -8 -4 -5 -9 3 -5 -1 -14 -9 -21 -8 -7
-15 -21 -15 -31 0 -11 -4 -19 -9 -19 -5 0 -14 -12 -20 -27 -5 -16 -32 -68 -59
-118 -26 -49 -79 -148 -116 -220 -38 -71 -87 -164 -109 -205 -22 -41 -60 -113
-85 -160 -25 -47 -62 -116 -82 -155 -85 -160 -165 -311 -174 -332 -6 -13 -15
-23 -19 -23 -5 0 -6 -4 -2 -9 3 -5 -2 -16 -10 -25 -9 -8 -15 -17 -14 -18 2 -3
-30 -68 -60 -121 -10 -18 -48 -90 -86 -162 -37 -71 -72 -134 -76 -139 -5 -6
-9 -15 -9 -22 0 -12 107 -147 121 -152 5 -2 9 -8 9 -13 0 -5 8 -17 18 -27 9
-11 28 -33 42 -51 14 -17 30 -37 37 -45 12 -14 112 -134 128 -154 5 -7 22 -27
38 -43 15 -16 27 -34 27 -39 0 -4 3 -10 8 -12 6 -3 113 -128 187 -221 17 -21
40 -49 52 -62 12 -14 34 -41 50 -62 15 -20 39 -49 53 -64 14 -15 36 -42 50
-60 14 -18 39 -48 56 -66 17 -18 29 -33 25 -33 -3 0 -1 -4 4 -8 9 -6 58 -64
115 -135 8 -11 20 -24 25 -31 6 -6 30 -36 55 -66 25 -30 51 -61 58 -68 7 -8
25 -30 40 -50 15 -21 32 -41 38 -47 6 -5 42 -48 80 -95 38 -47 72 -86 77 -88
4 -2 7 -8 7 -13 0 -5 14 -23 30 -39 17 -16 30 -32 30 -35 0 -3 10 -17 23 -30
12 -13 27 -30 32 -37 9 -12 130 -159 165 -200 21 -26 27 -23 51 29 24 55 61
134 149 318 34 72 69 147 77 168 8 20 18 37 22 37 4 0 8 6 8 13 0 6 21 55 46
107 99 209 176 373 197 422 5 13 14 30 19 38 5 8 18 35 29 60 11 25 43 93 71
152 28 59 51 112 51 117 0 6 5 11 10 11 6 0 10 6 10 13 0 6 12 35 25 62 14 28
25 56 25 63 0 6 5 12 10 12 6 0 10 9 10 20 0 11 5 20 12 20 6 0 9 3 6 6 -3 3
11 40 32 82 20 42 38 80 39 84 1 4 24 52 51 106 l49 99 1078 1 c593 0 1092 1
1110 1 29 1 35 7 69 74 20 39 53 104 74 142 20 39 63 120 95 180 32 61 63 113
69 117 6 4 7 8 3 8 -4 0 9 30 29 67 58 106 64 117 64 131 0 6 4 12 8 12 7 0
44 66 40 73 -1 1 10 20 23 42 13 22 31 54 39 70 8 17 23 42 33 57 10 16 16 28
12 28 -3 0 1 10 9 23 22 33 67 117 138 257 35 69 66 127 69 130 4 3 15 22 25
43 57 115 110 212 117 215 4 2 7 12 7 22 0 10 3 20 8 22 4 2 18 26 32 53 14
28 29 53 33 56 5 3 8 8 7 10 -4 9 24 59 33 59 6 0 8 3 4 6 -5 6 27 70 96 194
25 46 120 226 188 360 28 54 35 76 26 82 -7 4 -8 8 -3 8 4 0 -7 14 -25 31 -19
17 -146 140 -283 273 -136 132 -283 275 -326 316 -272 264 -556 539 -640 620
-54 52 -170 165 -259 251 -90 88 -156 158 -149 161 7 2 577 3 1266 2 893 0
1255 2 1261 10 5 6 32 56 61 111 29 55 57 106 63 113 5 6 6 12 1 12 -5 0 -4 4
1 8 12 8 13 10 103 183 39 73 82 157 97 184 54 100 231 437 277 525 18 36 38
68 43 72 7 5 7 8 0 8 -7 0 -7 3 0 8 6 4 27 41 49 82 21 41 55 107 76 145 20
39 70 133 110 210 41 77 78 143 84 147 6 4 7 8 2 8 -5 0 -4 6 1 13 6 6 43 75
84 152 40 77 88 167 106 200 37 68 62 123 62 132 -1 3 3 9 9 12 5 3 26 40 47
81 21 41 45 83 53 93 14 16 12 17 -24 18 -21 0 -1409 1 -3084 2 -2798 2 -3046
1 -3058 -14z m138 -4179 c0 -5 -2 -10 -4 -10 -3 0 -8 5 -11 10 -3 6 -1 10 4
10 6 0 11 -4 11 -10z m105 0 c3 -6 -1 -7 -9 -4 -18 7 -21 14 -7 14 6 0 13 -4
16 -10z m70 -8 c-3 -3 -11 0 -18 7 -9 10 -8 11 6 5 10 -3 15 -9 12 -12z m135
12 c0 -8 -19 -13 -24 -6 -3 5 1 9 9 9 8 0 15 -2 15 -3z m35 -4 c3 -6 -1 -7 -9
-4 -18 7 -21 14 -7 14 6 0 13 -4 16 -10z m99 -2 c-3 -4 -11 -5 -19 -1 -21 7
-19 12 4 10 11 0 18 -5 15 -9z m61 2 c3 -6 -1 -7 -9 -4 -18 7 -21 14 -7 14 6
0 13 -4 16 -10z m99 -2 c-3 -4 -11 -5 -19 -1 -21 7 -19 12 4 10 11 0 18 -5 15
-9z m66 6 c0 -8 -19 -13 -24 -6 -3 5 1 9 9 9 8 0 15 -2 15 -3z m97 0 c-3 -3
-12 -4 -19 -1 -8 3 -5 6 6 6 11 1 17 -2 13 -5z m53 -9 c0 -2 -9 -3 -19 -2 -11
0 -18 5 -15 9 4 6 34 0 34 -7z m130 9 c0 -8 -19 -13 -24 -6 -3 5 1 9 9 9 8 0
15 -2 15 -3z m35 -4 c3 -6 -1 -7 -9 -4 -18 7 -21 14 -7 14 6 0 13 -4 16 -10z
m99 -2 c-3 -4 -11 -5 -19 -1 -21 7 -19 12 4 10 11 0 18 -5 15 -9z m66 6 c0 -8
-19 -13 -24 -6 -3 5 1 9 9 9 8 0 15 -2 15 -3z m97 0 c-3 -3 -12 -4 -19 -1 -8
3 -5 6 6 6 11 1 17 -2 13 -5z m53 -9 c0 -2 -9 -3 -19 -2 -11 0 -18 5 -15 9 4
6 34 0 34 -7z m130 9 c0 -8 -19 -13 -24 -6 -3 5 1 9 9 9 8 0 15 -2 15 -3z m40
0 c0 -8 -19 -13 -24 -6 -3 5 1 9 9 9 8 0 15 -2 15 -3z m97 0 c-3 -3 -12 -4
-19 -1 -8 3 -5 6 6 6 11 1 17 -2 13 -5z m53 -9 c0 -2 -9 -3 -19 -2 -11 0 -18
5 -15 9 4 6 34 0 34 -7z m150 11 c0 -7 -40 -14 -44 -7 -3 4 6 8 20 9 13 1 24
0 24 -2z m50 -11 c0 -2 -9 -3 -19 -2 -11 0 -18 5 -15 9 4 6 34 0 34 -7z m103
8 c-7 -2 -19 -2 -25 0 -7 3 -2 5 12 5 14 0 19 -2 13 -5z m57 -8 c0 -2 -9 -3
-19 -2 -11 0 -18 5 -15 9 4 6 34 0 34 -7z m125 5 c3 -6 -1 -7 -9 -4 -18 7 -21
14 -7 14 6 0 13 -4 16 -10z m99 -2 c-3 -4 -11 -5 -19 -1 -21 7 -19 12 4 10 11
0 18 -5 15 -9z m66 6 c0 -8 -19 -13 -24 -6 -3 5 1 9 9 9 8 0 15 -2 15 -3z m97
0 c-3 -3 -12 -4 -19 -1 -8 3 -5 6 6 6 11 1 17 -2 13 -5z m53 -9 c0 -2 -9 -3
-19 -2 -11 0 -18 5 -15 9 4 6 34 0 34 -7z m130 9 c0 -8 -19 -13 -24 -6 -3 5 1
9 9 9 8 0 15 -2 15 -3z m35 -4 c3 -6 -1 -7 -9 -4 -18 7 -21 14 -7 14 6 0 13
-4 16 -10z m99 -2 c-3 -4 -11 -5 -19 -1 -21 7 -19 12 4 10 11 0 18 -5 15 -9z
m43 6 c-3 -3 -12 -4 -19 -1 -8 3 -5 6 6 6 11 1 17 -2 13 -5z m53 -9 c0 -2 -9
-3 -19 -2 -11 0 -18 5 -15 9 4 6 34 0 34 -7z m103 8 c-7 -2 -19 -2 -25 0 -7 3
-2 5 12 5 14 0 19 -2 13 -5z m57 -8 c0 -2 -9 -3 -19 -2 -11 0 -18 5 -15 9 4 6
34 0 34 -7z m130 9 c0 -8 -19 -13 -24 -6 -3 5 1 9 9 9 8 0 15 -2 15 -3z m97 0
c-3 -3 -12 -4 -19 -1 -8 3 -5 6 6 6 11 1 17 -2 13 -5z m53 -9 c0 -2 -9 -3 -19
-2 -11 0 -18 5 -15 9 4 6 34 0 34 -7z m130 9 c0 -8 -19 -13 -24 -6 -3 5 1 9 9
9 8 0 15 -2 15 -3z m40 0 c0 -8 -19 -13 -24 -6 -3 5 1 9 9 9 8 0 15 -2 15 -3z
m97 0 c-3 -3 -12 -4 -19 -1 -8 3 -5 6 6 6 11 1 17 -2 13 -5z m53 -9 c0 -2 -9
-3 -19 -2 -11 0 -18 5 -15 9 4 6 34 0 34 -7z m150 11 c0 -7 -40 -14 -44 -7 -3
4 6 8 20 9 13 1 24 0 24 -2z m50 -11 c0 -2 -9 -3 -19 -2 -11 0 -18 5 -15 9 4
6 34 0 34 -7z m95 5 c3 -6 -1 -7 -9 -4 -18 7 -21 14 -7 14 6 0 13 -4 16 -10z"/>
</g>
</svg>
